<?xml version="1.0" encoding="utf-8"?>
<!-- Generator: Adobe Illustrator 16.0.0, SVG Export Plug-In . SVG Version: 6.00 Build 0)  -->
<!DOCTYPE svg PUBLIC "-//W3C//DTD SVG 1.1//EN" "http://www.w3.org/Graphics/SVG/1.1/DTD/svg11.dtd">
<svg version="1.1" id="Layer_1" xmlns="http://www.w3.org/2000/svg" xmlns:xlink="http://www.w3.org/1999/xlink" x="0px" y="0px"
	 width="60px" height="60px" viewBox="-17.5 18.5 60 60" enable-background="new -17.5 18.5 60 60" xml:space="preserve">
<path fill="#FFFFFF" d="M22.5,42.5c0,0.553-0.447,1-1,1h-18c-0.552,0-1-0.447-1-1l0,0c0-0.553,0.448-1,1-1h18
	C22.053,41.5,22.5,41.947,22.5,42.5L22.5,42.5z"/>
<path fill="#FFFFFF" d="M22.5,54.5c0,0.553-0.447,1-1,1h-18c-0.552,0-1-0.447-1-1l0,0c0-0.553,0.448-1,1-1h18
	C22.053,53.5,22.5,53.947,22.5,54.5L22.5,54.5z"/>
<path fill="#FFFFFF" d="M22.5,48.5c0,0.553-0.447,1-1,1h-18c-0.552,0-1-0.447-1-1l0,0c0-0.553,0.448-1,1-1h18
	C22.053,47.5,22.5,47.947,22.5,48.5L22.5,48.5z"/>
</svg>
